# xmcd CD database file generated by OrangeCD 5.2
#
# Track frame offsets:
#	150
#	20092
#	42880
#	59440
#	78232
#	95122
#	117352
#	140070
#	157967
#	177177
#	197830
#	216667
#	233540
#	248227
#	272430
#	290950
#
# Disc length: 4155 seconds
#
# Revision: 0
# Processed by: cddbd v1.5.1PL2 Copyright (c) Steve Scherf et al.
# Submitted via: OrangeCD 5.2
#
DISCID=f1103910
DTITLE=Michael Bolton - Big Hits
DYEAR=1900
DGENRE=Blues
TTITLE0=Soul Provider
TTITLE1=Can I Touch You...There?
TTITLE2=When A Man Loves A Woman
TTITLE3=(Sittin'on) The Dock Of The Bay
TTITLE4=When I'm Back On My Feet Again
TTITLE5=Georgia On My Mind
TTITLE6=Said I Love You... But I Lied
TTITLE7=To Love Somebody
TTITLE8=Missing You Now
TTITLE9=Love Is Wonderful Thing
TTITLE10=How Am I Supposed To Live Without You
TTITLE11=How Can We Lovers
TTITLE12=Steel Bars
TTITLE13=Lean On Me
TTITLE14=A Love So Beautiful
TTITLE15=Go The Distance
EXTD=
EXTT0=
EXTT1=
EXTT2=
EXTT3=
EXTT4=
EXTT5=
EXTT6=
EXTT7=
EXTT8=
EXTT9=
EXTT10=
EXTT11=
EXTT12=
EXTT13=
EXTT14=
EXTT15=
PLAYORDER=
